<svg width="169" height="36" viewBox="0 0 169 36" fill="none" xmlns="http://www.w3.org/2000/svg">
<rect width="169" height="36" rx="18" fill="#00D09E"/>
<path d="M53.1197 21.14H47.5597L46.6397 23.8H43.6997L48.7197 9.82005H51.9797L56.9997 23.8H54.0397L53.1197 21.14ZM52.3597 18.9L50.3397 13.06L48.3197 18.9H52.3597ZM58.1561 18.26C58.1561 17.1134 58.3894 16.1134 58.8561 15.26C59.3228 14.3934 59.9694 13.7267 60.7961 13.26C61.6228 12.78 62.5694 12.54 63.6361 12.54C65.0094 12.54 66.1428 12.8867 67.0361 13.58C67.9428 14.26 68.5494 15.22 68.8561 16.46H65.8361C65.6761 15.98 65.4028 15.6067 65.0161 15.34C64.6428 15.06 64.1761 14.92 63.6161 14.92C62.8161 14.92 62.1828 15.2134 61.7161 15.8C61.2494 16.3734 61.0161 17.1934 61.0161 18.26C61.0161 19.3134 61.2494 20.1334 61.7161 20.72C62.1828 21.2934 62.8161 21.58 63.6161 21.58C64.7494 21.58 65.4894 21.0734 65.8361 20.06H68.8561C68.5494 21.26 67.9428 22.2134 67.0361 22.92C66.1294 23.6267 64.9961 23.98 63.6361 23.98C62.5694 23.98 61.6228 23.7467 60.7961 23.28C59.9694 22.8 59.3228 22.1334 58.8561 21.28C58.3894 20.4134 58.1561 19.4067 58.1561 18.26ZM81.2073 18.02C81.2073 18.42 81.1807 18.78 81.1273 19.1H73.0273C73.094 19.9 73.374 20.5267 73.8673 20.98C74.3607 21.4334 74.9673 21.66 75.6873 21.66C76.7273 21.66 77.4673 21.2134 77.9073 20.32H80.9273C80.6073 21.3867 79.994 22.2667 79.0873 22.96C78.1807 23.64 77.0673 23.98 75.7473 23.98C74.6807 23.98 73.7207 23.7467 72.8673 23.28C72.0273 22.8 71.3673 22.1267 70.8873 21.26C70.4207 20.3934 70.1873 19.3934 70.1873 18.26C70.1873 17.1134 70.4207 16.1067 70.8873 15.24C71.354 14.3734 72.0073 13.7067 72.8473 13.24C73.6873 12.7734 74.654 12.54 75.7473 12.54C76.8007 12.54 77.7407 12.7667 78.5673 13.22C79.4073 13.6734 80.054 14.32 80.5073 15.16C80.974 15.9867 81.2073 16.94 81.2073 18.02ZM78.3073 17.22C78.294 16.5 78.034 15.9267 77.5273 15.5C77.0207 15.06 76.4007 14.84 75.6673 14.84C74.974 14.84 74.3873 15.0534 73.9073 15.48C73.4407 15.8934 73.154 16.4734 73.0473 17.22H78.3073ZM86.0511 14.32C86.4111 13.8134 86.9044 13.3934 87.5311 13.06C88.1711 12.7134 88.8978 12.54 89.7111 12.54C90.6578 12.54 91.5111 12.7734 92.2711 13.24C93.0444 13.7067 93.6511 14.3734 94.0911 15.24C94.5444 16.0934 94.7711 17.0867 94.7711 18.22C94.7711 19.3534 94.5444 20.36 94.0911 21.24C93.6511 22.1067 93.0444 22.78 92.2711 23.26C91.5111 23.74 90.6578 23.98 89.7111 23.98C88.8978 23.98 88.1778 23.8134 87.5511 23.48C86.9378 23.1467 86.4378 22.7267 86.0511 22.22V29.08H83.2511V12.72H86.0511V14.32ZM91.9111 18.22C91.9111 17.5534 91.7711 16.98 91.4911 16.5C91.2244 16.0067 90.8644 15.6334 90.4111 15.38C89.9711 15.1267 89.4911 15 88.9711 15C88.4644 15 87.9844 15.1334 87.5311 15.4C87.0911 15.6534 86.7311 16.0267 86.4511 16.52C86.1844 17.0134 86.0511 17.5934 86.0511 18.26C86.0511 18.9267 86.1844 19.5067 86.4511 20C86.7311 20.4934 87.0911 20.8734 87.5311 21.14C87.9844 21.3934 88.4644 21.52 88.9711 21.52C89.4911 21.52 89.9711 21.3867 90.4111 21.12C90.8644 20.8534 91.2244 20.4734 91.4911 19.98C91.7711 19.4867 91.9111 18.9 91.9111 18.22ZM100.066 15.02V20.38C100.066 20.7534 100.152 21.0267 100.326 21.2C100.512 21.36 100.819 21.44 101.246 21.44H102.546V23.8H100.786C98.4258 23.8 97.2458 22.6534 97.2458 20.36V15.02H95.9258V12.72H97.2458V9.98005H100.066V12.72H102.546V15.02H100.066ZM103.84 18.22C103.84 17.1 104.06 16.1067 104.5 15.24C104.953 14.3734 105.56 13.7067 106.32 13.24C107.093 12.7734 107.953 12.54 108.9 12.54C109.726 12.54 110.446 12.7067 111.06 13.04C111.686 13.3734 112.186 13.7934 112.56 14.3V12.72H115.38V23.8H112.56V22.18C112.2 22.7 111.7 23.1334 111.06 23.48C110.433 23.8134 109.706 23.98 108.88 23.98C107.946 23.98 107.093 23.74 106.32 23.26C105.56 22.78 104.953 22.1067 104.5 21.24C104.06 20.36 103.84 19.3534 103.84 18.22ZM112.56 18.26C112.56 17.58 112.426 17 112.16 16.52C111.893 16.0267 111.533 15.6534 111.08 15.4C110.626 15.1334 110.14 15 109.62 15C109.1 15 108.62 15.1267 108.18 15.38C107.74 15.6334 107.38 16.0067 107.1 16.5C106.833 16.98 106.7 17.5534 106.7 18.22C106.7 18.8867 106.833 19.4734 107.1 19.98C107.38 20.4734 107.74 20.8534 108.18 21.12C108.633 21.3867 109.113 21.52 109.62 21.52C110.14 21.52 110.626 21.3934 111.08 21.14C111.533 20.8734 111.893 20.5 112.16 20.02C112.426 19.5267 112.56 18.94 112.56 18.26ZM120.914 14.44C121.274 13.8534 121.741 13.3934 122.314 13.06C122.901 12.7267 123.568 12.56 124.314 12.56V15.5H123.574C122.694 15.5 122.028 15.7067 121.574 16.12C121.134 16.5334 120.914 17.2534 120.914 18.28V23.8H118.114V12.72H120.914V14.44Z" fill="#093030"/>
</svg>
