<svg width="357" height="45" viewBox="0 0 357 45" fill="none" xmlns="http://www.w3.org/2000/svg">
<rect width="357" height="45" rx="22.5" fill="#00D09E"/>
<path d="M70.6336 22C70.6336 20.6267 70.9403 19.4 71.5536 18.32C72.1803 17.2267 73.0269 16.38 74.0936 15.78C75.1736 15.1667 76.3803 14.86 77.7136 14.86C79.2736 14.86 80.6403 15.26 81.8136 16.06C82.9869 16.86 83.8069 17.9667 84.2736 19.38H81.0536C80.7336 18.7133 80.2803 18.2133 79.6936 17.88C79.1203 17.5467 78.4536 17.38 77.6936 17.38C76.8803 17.38 76.1536 17.5733 75.5136 17.96C74.8869 18.3333 74.3936 18.8667 74.0336 19.56C73.6869 20.2533 73.5136 21.0667 73.5136 22C73.5136 22.92 73.6869 23.7333 74.0336 24.44C74.3936 25.1333 74.8869 25.6733 75.5136 26.06C76.1536 26.4333 76.8803 26.62 77.6936 26.62C78.4536 26.62 79.1203 26.4533 79.6936 26.12C80.2803 25.7733 80.7336 25.2667 81.0536 24.6H84.2736C83.8069 26.0267 82.9869 27.14 81.8136 27.94C80.6536 28.7267 79.2869 29.12 77.7136 29.12C76.3803 29.12 75.1736 28.82 74.0936 28.22C73.0269 27.6067 72.1803 26.76 71.5536 25.68C70.9403 24.6 70.6336 23.3733 70.6336 22ZM85.9452 23.42C85.9452 22.3 86.1652 21.3067 86.6052 20.44C87.0585 19.5733 87.6652 18.9067 88.4252 18.44C89.1985 17.9733 90.0585 17.74 91.0052 17.74C91.8318 17.74 92.5518 17.9067 93.1652 18.24C93.7918 18.5733 94.2918 18.9933 94.6652 19.5V17.92H97.4852V29H94.6652V27.38C94.3052 27.9 93.8052 28.3333 93.1652 28.68C92.5385 29.0133 91.8118 29.18 90.9852 29.18C90.0518 29.18 89.1985 28.94 88.4252 28.46C87.6652 27.98 87.0585 27.3067 86.6052 26.44C86.1652 25.56 85.9452 24.5533 85.9452 23.42ZM94.6652 23.46C94.6652 22.78 94.5318 22.2 94.2652 21.72C93.9985 21.2267 93.6385 20.8533 93.1852 20.6C92.7318 20.3333 92.2452 20.2 91.7252 20.2C91.2052 20.2 90.7252 20.3267 90.2852 20.58C89.8452 20.8333 89.4852 21.2067 89.2052 21.7C88.9385 22.18 88.8052 22.7533 88.8052 23.42C88.8052 24.0867 88.9385 24.6733 89.2052 25.18C89.4852 25.6733 89.8452 26.0533 90.2852 26.32C90.7385 26.5867 91.2185 26.72 91.7252 26.72C92.2452 26.72 92.7318 26.5933 93.1852 26.34C93.6385 26.0733 93.9985 25.7 94.2652 25.22C94.5318 24.7267 94.6652 24.14 94.6652 23.46ZM113.98 17.76C115.34 17.76 116.433 18.18 117.26 19.02C118.1 19.8467 118.52 21.0067 118.52 22.5V29H115.72V22.88C115.72 22.0133 115.5 21.3533 115.06 20.9C114.62 20.4333 114.02 20.2 113.26 20.2C112.5 20.2 111.893 20.4333 111.44 20.9C111 21.3533 110.78 22.0133 110.78 22.88V29H107.98V22.88C107.98 22.0133 107.76 21.3533 107.32 20.9C106.88 20.4333 106.28 20.2 105.52 20.2C104.747 20.2 104.133 20.4333 103.68 20.9C103.24 21.3533 103.02 22.0133 103.02 22.88V29H100.22V17.92H103.02V19.26C103.38 18.7933 103.84 18.4267 104.4 18.16C104.973 17.8933 105.6 17.76 106.28 17.76C107.147 17.76 107.92 17.9467 108.6 18.32C109.28 18.68 109.807 19.2 110.18 19.88C110.54 19.24 111.06 18.7267 111.74 18.34C112.433 17.9533 113.18 17.76 113.98 17.76ZM123.977 19.54C124.337 19.0067 124.83 18.5733 125.457 18.24C126.097 17.9067 126.824 17.74 127.637 17.74C128.584 17.74 129.437 17.9733 130.197 18.44C130.97 18.9067 131.577 19.5733 132.017 20.44C132.47 21.2933 132.697 22.2867 132.697 23.42C132.697 24.5533 132.47 25.56 132.017 26.44C131.577 27.3067 130.97 27.98 130.197 28.46C129.437 28.94 128.584 29.18 127.637 29.18C126.81 29.18 126.084 29.02 125.457 28.7C124.844 28.3667 124.35 27.94 123.977 27.42V29H121.177V14.2H123.977V19.54ZM129.837 23.42C129.837 22.7533 129.697 22.18 129.417 21.7C129.15 21.2067 128.79 20.8333 128.337 20.58C127.897 20.3267 127.417 20.2 126.897 20.2C126.39 20.2 125.91 20.3333 125.457 20.6C125.017 20.8533 124.657 21.2267 124.377 21.72C124.11 22.2133 123.977 22.7933 123.977 23.46C123.977 24.1267 124.11 24.7067 124.377 25.2C124.657 25.6933 125.017 26.0733 125.457 26.34C125.91 26.5933 126.39 26.72 126.897 26.72C127.417 26.72 127.897 26.5867 128.337 26.32C128.79 26.0533 129.15 25.6733 129.417 25.18C129.697 24.6867 129.837 24.1 129.837 23.42ZM136.152 16.6C135.658 16.6 135.245 16.4467 134.912 16.14C134.592 15.82 134.432 15.4267 134.432 14.96C134.432 14.4933 134.592 14.1067 134.912 13.8C135.245 13.48 135.658 13.32 136.152 13.32C136.645 13.32 137.052 13.48 137.372 13.8C137.705 14.1067 137.872 14.4933 137.872 14.96C137.872 15.4267 137.705 15.82 137.372 16.14C137.052 16.4467 136.645 16.6 136.152 16.6ZM137.532 17.92V29H134.732V17.92H137.532ZM139.578 23.42C139.578 22.3 139.798 21.3067 140.238 20.44C140.691 19.5733 141.298 18.9067 142.058 18.44C142.831 17.9733 143.691 17.74 144.638 17.74C145.465 17.74 146.185 17.9067 146.798 18.24C147.425 18.5733 147.925 18.9933 148.298 19.5V17.92H151.118V29H148.298V27.38C147.938 27.9 147.438 28.3333 146.798 28.68C146.171 29.0133 145.445 29.18 144.618 29.18C143.685 29.18 142.831 28.94 142.058 28.46C141.298 27.98 140.691 27.3067 140.238 26.44C139.798 25.56 139.578 24.5533 139.578 23.42ZM148.298 23.46C148.298 22.78 148.165 22.2 147.898 21.72C147.631 21.2267 147.271 20.8533 146.818 20.6C146.365 20.3333 145.878 20.2 145.358 20.2C144.838 20.2 144.358 20.3267 143.918 20.58C143.478 20.8333 143.118 21.2067 142.838 21.7C142.571 22.18 142.438 22.7533 142.438 23.42C142.438 24.0867 142.571 24.6733 142.838 25.18C143.118 25.6733 143.478 26.0533 143.918 26.32C144.371 26.5867 144.851 26.72 145.358 26.72C145.878 26.72 146.365 26.5933 146.818 26.34C147.271 26.0733 147.631 25.7 147.898 25.22C148.165 24.7267 148.298 24.14 148.298 23.46ZM156.653 19.64C157.013 19.0533 157.479 18.5933 158.053 18.26C158.639 17.9267 159.306 17.76 160.053 17.76V20.7H159.313C158.433 20.7 157.766 20.9067 157.313 21.32C156.873 21.7333 156.653 22.4533 156.653 23.48V29H153.853V17.92H156.653V19.64ZM166.024 22C166.024 20.6267 166.331 19.4 166.944 18.32C167.571 17.2267 168.418 16.38 169.484 15.78C170.564 15.1667 171.771 14.86 173.104 14.86C174.664 14.86 176.031 15.26 177.204 16.06C178.378 16.86 179.198 17.9667 179.664 19.38H176.444C176.124 18.7133 175.671 18.2133 175.084 17.88C174.511 17.5467 173.844 17.38 173.084 17.38C172.271 17.38 171.544 17.5733 170.904 17.96C170.278 18.3333 169.784 18.8667 169.424 19.56C169.078 20.2533 168.904 21.0667 168.904 22C168.904 22.92 169.078 23.7333 169.424 24.44C169.784 25.1333 170.278 25.6733 170.904 26.06C171.544 26.4333 172.271 26.62 173.084 26.62C173.844 26.62 174.511 26.4533 175.084 26.12C175.671 25.7733 176.124 25.2667 176.444 24.6H179.664C179.198 26.0267 178.378 27.14 177.204 27.94C176.044 28.7267 174.678 29.12 173.104 29.12C171.771 29.12 170.564 28.82 169.484 28.22C168.418 27.6067 167.571 26.76 166.944 25.68C166.331 24.6 166.024 23.3733 166.024 22ZM186.976 29.18C185.909 29.18 184.949 28.9467 184.096 28.48C183.242 28 182.569 27.3267 182.076 26.46C181.596 25.5933 181.356 24.5933 181.356 23.46C181.356 22.3267 181.602 21.3267 182.096 20.46C182.602 19.5933 183.289 18.9267 184.156 18.46C185.022 17.98 185.989 17.74 187.056 17.74C188.122 17.74 189.089 17.98 189.956 18.46C190.822 18.9267 191.502 19.5933 191.996 20.46C192.502 21.3267 192.756 22.3267 192.756 23.46C192.756 24.5933 192.496 25.5933 191.976 26.46C191.469 27.3267 190.776 28 189.896 28.48C189.029 28.9467 188.056 29.18 186.976 29.18ZM186.976 26.74C187.482 26.74 187.956 26.62 188.396 26.38C188.849 26.1267 189.209 25.7533 189.476 25.26C189.742 24.7667 189.876 24.1667 189.876 23.46C189.876 22.4067 189.596 21.6 189.036 21.04C188.489 20.4667 187.816 20.18 187.016 20.18C186.216 20.18 185.542 20.4667 184.996 21.04C184.462 21.6 184.196 22.4067 184.196 23.46C184.196 24.5133 184.456 25.3267 184.976 25.9C185.509 26.46 186.176 26.74 186.976 26.74ZM200.95 17.76C202.27 17.76 203.336 18.18 204.15 19.02C204.963 19.8467 205.37 21.0067 205.37 22.5V29H202.57V22.88C202.57 22 202.35 21.3267 201.91 20.86C201.47 20.38 200.87 20.14 200.11 20.14C199.336 20.14 198.723 20.38 198.27 20.86C197.83 21.3267 197.61 22 197.61 22.88V29H194.81V17.92H197.61V19.3C197.983 18.82 198.456 18.4467 199.03 18.18C199.616 17.9 200.256 17.76 200.95 17.76ZM211.292 20.22V25.58C211.292 25.9533 211.379 26.2267 211.552 26.4C211.739 26.56 212.046 26.64 212.472 26.64H213.772V29H212.012C209.652 29 208.472 27.8533 208.472 25.56V20.22H207.152V17.92H208.472V15.18H211.292V17.92H213.772V20.22H211.292ZM218.586 19.64C218.946 19.0533 219.413 18.5933 219.986 18.26C220.573 17.9267 221.24 17.76 221.986 17.76V20.7H221.246C220.366 20.7 219.7 20.9067 219.246 21.32C218.806 21.7333 218.586 22.4533 218.586 23.48V29H215.786V17.92H218.586V19.64ZM223.152 23.42C223.152 22.3 223.372 21.3067 223.812 20.44C224.266 19.5733 224.872 18.9067 225.632 18.44C226.406 17.9733 227.266 17.74 228.212 17.74C229.039 17.74 229.759 17.9067 230.372 18.24C230.999 18.5733 231.499 18.9933 231.872 19.5V17.92H234.692V29H231.872V27.38C231.512 27.9 231.012 28.3333 230.372 28.68C229.746 29.0133 229.019 29.18 228.192 29.18C227.259 29.18 226.406 28.94 225.632 28.46C224.872 27.98 224.266 27.3067 223.812 26.44C223.372 25.56 223.152 24.5533 223.152 23.42ZM231.872 23.46C231.872 22.78 231.739 22.2 231.472 21.72C231.206 21.2267 230.846 20.8533 230.392 20.6C229.939 20.3333 229.452 20.2 228.932 20.2C228.412 20.2 227.932 20.3267 227.492 20.58C227.052 20.8333 226.692 21.2067 226.412 21.7C226.146 22.18 226.012 22.7533 226.012 23.42C226.012 24.0867 226.146 24.6733 226.412 25.18C226.692 25.6733 227.052 26.0533 227.492 26.32C227.946 26.5867 228.426 26.72 228.932 26.72C229.452 26.72 229.939 26.5933 230.392 26.34C230.846 26.0733 231.206 25.7 231.472 25.22C231.739 24.7267 231.872 24.14 231.872 23.46ZM241.667 29.18C240.76 29.18 239.947 29.02 239.227 28.7C238.507 28.3667 237.934 27.92 237.507 27.36C237.094 26.8 236.867 26.18 236.827 25.5H239.647C239.7 25.9267 239.907 26.28 240.267 26.56C240.64 26.84 241.1 26.98 241.647 26.98C242.18 26.98 242.594 26.8733 242.887 26.66C243.194 26.4467 243.347 26.1733 243.347 25.84C243.347 25.48 243.16 25.2133 242.787 25.04C242.427 24.8533 241.847 24.6533 241.047 24.44C240.22 24.24 239.54 24.0333 239.007 23.82C238.487 23.6067 238.034 23.28 237.647 22.84C237.274 22.4 237.087 21.8067 237.087 21.06C237.087 20.4467 237.26 19.8867 237.607 19.38C237.967 18.8733 238.474 18.4733 239.127 18.18C239.794 17.8867 240.574 17.74 241.467 17.74C242.787 17.74 243.84 18.0733 244.627 18.74C245.414 19.3933 245.847 20.28 245.927 21.4H243.247C243.207 20.96 243.02 20.6133 242.687 20.36C242.367 20.0933 241.934 19.96 241.387 19.96C240.88 19.96 240.487 20.0533 240.207 20.24C239.94 20.4267 239.807 20.6867 239.807 21.02C239.807 21.3933 239.994 21.68 240.367 21.88C240.74 22.0667 241.32 22.26 242.107 22.46C242.907 22.66 243.567 22.8667 244.087 23.08C244.607 23.2933 245.054 23.6267 245.427 24.08C245.814 24.52 246.014 25.1067 246.027 25.84C246.027 26.48 245.847 27.0533 245.487 27.56C245.14 28.0667 244.634 28.4667 243.967 28.76C243.314 29.04 242.547 29.18 241.667 29.18ZM258.625 23.22C258.625 23.62 258.599 23.98 258.545 24.3H250.445C250.512 25.1 250.792 25.7267 251.285 26.18C251.779 26.6333 252.385 26.86 253.105 26.86C254.145 26.86 254.885 26.4133 255.325 25.52H258.345C258.025 26.5867 257.412 27.4667 256.505 28.16C255.599 28.84 254.485 29.18 253.165 29.18C252.099 29.18 251.139 28.9467 250.285 28.48C249.445 28 248.785 27.3267 248.305 26.46C247.839 25.5933 247.605 24.5933 247.605 23.46C247.605 22.3133 247.839 21.3067 248.305 20.44C248.772 19.5733 249.425 18.9067 250.265 18.44C251.105 17.9733 252.072 17.74 253.165 17.74C254.219 17.74 255.159 17.9667 255.985 18.42C256.825 18.8733 257.472 19.52 257.925 20.36C258.392 21.1867 258.625 22.14 258.625 23.22ZM255.725 22.42C255.712 21.7 255.452 21.1267 254.945 20.7C254.439 20.26 253.819 20.04 253.085 20.04C252.392 20.04 251.805 20.2533 251.325 20.68C250.859 21.0933 250.572 21.6733 250.465 22.42H255.725ZM266.809 17.76C268.129 17.76 269.196 18.18 270.009 19.02C270.822 19.8467 271.229 21.0067 271.229 22.5V29H268.429V22.88C268.429 22 268.209 21.3267 267.769 20.86C267.329 20.38 266.729 20.14 265.969 20.14C265.196 20.14 264.582 20.38 264.129 20.86C263.689 21.3267 263.469 22 263.469 22.88V29H260.669V17.92H263.469V19.3C263.842 18.82 264.316 18.4467 264.889 18.18C265.476 17.9 266.116 17.76 266.809 17.76ZM262.629 16.86C262.749 15.98 263.022 15.3267 263.449 14.9C263.889 14.46 264.442 14.24 265.109 14.24C265.389 14.24 265.636 14.2867 265.849 14.38C266.062 14.46 266.302 14.58 266.569 14.74C266.969 14.9933 267.302 15.12 267.569 15.12C268.062 15.12 268.349 14.8333 268.429 14.26H269.929C269.809 15.14 269.529 15.8 269.089 16.24C268.662 16.6667 268.116 16.88 267.449 16.88C267.169 16.88 266.922 16.84 266.709 16.76C266.496 16.6667 266.256 16.54 265.989 16.38C265.602 16.1133 265.269 15.98 264.989 15.98C264.496 15.98 264.202 16.2733 264.109 16.86H262.629ZM273.172 23.42C273.172 22.3 273.392 21.3067 273.832 20.44C274.285 19.5733 274.892 18.9067 275.652 18.44C276.425 17.9733 277.285 17.74 278.232 17.74C279.058 17.74 279.778 17.9067 280.392 18.24C281.018 18.5733 281.518 18.9933 281.892 19.5V17.92H284.712V29H281.892V27.38C281.532 27.9 281.032 28.3333 280.392 28.68C279.765 29.0133 279.038 29.18 278.212 29.18C277.278 29.18 276.425 28.94 275.652 28.46C274.892 27.98 274.285 27.3067 273.832 26.44C273.392 25.56 273.172 24.5533 273.172 23.42ZM281.892 23.46C281.892 22.78 281.758 22.2 281.492 21.72C281.225 21.2267 280.865 20.8533 280.412 20.6C279.958 20.3333 279.472 20.2 278.952 20.2C278.432 20.2 277.952 20.3267 277.512 20.58C277.072 20.8333 276.712 21.2067 276.432 21.7C276.165 22.18 276.032 22.7533 276.032 23.42C276.032 24.0867 276.165 24.6733 276.432 25.18C276.712 25.6733 277.072 26.0533 277.512 26.32C277.965 26.5867 278.445 26.72 278.952 26.72C279.472 26.72 279.958 26.5933 280.412 26.34C280.865 26.0733 281.225 25.7 281.492 25.22C281.758 24.7267 281.892 24.14 281.892 23.46Z" fill="#093030"/>
</svg>
