<svg width="169" height="32" viewBox="0 0 169 32" fill="none" xmlns="http://www.w3.org/2000/svg">
<rect width="169" height="32" rx="16" fill="#00D09E"/>
<path d="M56.6566 10.1223V13.6223H61.3566V15.8423H56.6566V19.5423H61.9566V21.8223H53.8566V7.84226H61.9566V10.1223H56.6566ZM70.6411 10.5823C71.9611 10.5823 73.0278 11.0023 73.8411 11.8423C74.6544 12.6689 75.0611 13.8289 75.0611 15.3223V21.8223H72.2611V15.7023C72.2611 14.8223 72.0411 14.1489 71.6011 13.6823C71.1611 13.2023 70.5611 12.9623 69.8011 12.9623C69.0278 12.9623 68.4144 13.2023 67.9611 13.6823C67.5211 14.1489 67.3011 14.8223 67.3011 15.7023V21.8223H64.5011V10.7423H67.3011V12.1223C67.6744 11.6423 68.1478 11.2689 68.7211 11.0023C69.3078 10.7223 69.9478 10.5823 70.6411 10.5823ZM82.3438 19.2423L85.1438 10.7423H88.1238L84.0238 21.8223H80.6238L76.5438 10.7423H79.5438L82.3438 19.2423ZM91.1164 9.42227C90.6231 9.42227 90.2097 9.26893 89.8764 8.96227C89.5564 8.64226 89.3964 8.24893 89.3964 7.78227C89.3964 7.3156 89.5564 6.92893 89.8764 6.62226C90.2097 6.30226 90.6231 6.14226 91.1164 6.14226C91.6097 6.14226 92.0164 6.30226 92.3364 6.62226C92.6697 6.92893 92.8364 7.3156 92.8364 7.78227C92.8364 8.24893 92.6697 8.64226 92.3364 8.96227C92.0164 9.26893 91.6097 9.42227 91.1164 9.42227ZM92.4964 10.7423V21.8223H89.6964V10.7423H92.4964ZM94.5428 16.2423C94.5428 15.1223 94.7628 14.1289 95.2028 13.2623C95.6561 12.3956 96.2628 11.7289 97.0228 11.2623C97.7961 10.7956 98.6561 10.5623 99.6028 10.5623C100.429 10.5623 101.149 10.7289 101.763 11.0623C102.389 11.3956 102.889 11.8156 103.263 12.3223V10.7423H106.083V21.8223H103.263V20.2023C102.903 20.7223 102.403 21.1556 101.763 21.5023C101.136 21.8356 100.409 22.0023 99.5828 22.0023C98.6495 22.0023 97.7961 21.7623 97.0228 21.2823C96.2628 20.8023 95.6561 20.1289 95.2028 19.2623C94.7628 18.3823 94.5428 17.3756 94.5428 16.2423ZM103.263 16.2823C103.263 15.6023 103.129 15.0223 102.863 14.5423C102.596 14.0489 102.236 13.6756 101.783 13.4223C101.329 13.1556 100.843 13.0223 100.323 13.0223C99.8028 13.0223 99.3228 13.1489 98.8828 13.4023C98.4428 13.6556 98.0828 14.0289 97.8028 14.5223C97.5361 15.0023 97.4028 15.5756 97.4028 16.2423C97.4028 16.9089 97.5361 17.4956 97.8028 18.0023C98.0828 18.4956 98.4428 18.8756 98.8828 19.1423C99.3361 19.4089 99.8161 19.5423 100.323 19.5423C100.843 19.5423 101.329 19.4156 101.783 19.1623C102.236 18.8956 102.596 18.5223 102.863 18.0423C103.129 17.5489 103.263 16.9623 103.263 16.2823ZM111.618 12.4623C111.978 11.8756 112.444 11.4156 113.018 11.0823C113.604 10.7489 114.271 10.5823 115.018 10.5823V13.5223H114.278C113.398 13.5223 112.731 13.7289 112.278 14.1423C111.838 14.5556 111.618 15.2756 111.618 16.3023V21.8223H108.818V10.7423H111.618V12.4623Z" fill="#093030"/>
</svg>
