<svg width="207" height="45" viewBox="0 0 207 45" fill="none" xmlns="http://www.w3.org/2000/svg">
<rect width="207" height="45" rx="22.5" fill="#00D09E"/>
<path d="M39.514 15.04V29H36.714V15.04H39.514ZM48.4204 17.76C49.7404 17.76 50.8071 18.18 51.6204 19.02C52.4337 19.8467 52.8404 21.0067 52.8404 22.5V29H50.0404V22.88C50.0404 22 49.8204 21.3267 49.3804 20.86C48.9404 20.38 48.3404 20.14 47.5804 20.14C46.8071 20.14 46.1937 20.38 45.7404 20.86C45.3004 21.3267 45.0804 22 45.0804 22.88V29H42.2804V17.92H45.0804V19.3C45.4537 18.82 45.9271 18.4467 46.5004 18.18C47.0871 17.9 47.7271 17.76 48.4204 17.76ZM56.923 16.6C56.4297 16.6 56.0164 16.4467 55.683 16.14C55.363 15.82 55.203 15.4267 55.203 14.96C55.203 14.4933 55.363 14.1067 55.683 13.8C56.0164 13.48 56.4297 13.32 56.923 13.32C57.4164 13.32 57.823 13.48 58.143 13.8C58.4764 14.1067 58.643 14.4933 58.643 14.96C58.643 15.4267 58.4764 15.82 58.143 16.14C57.823 16.4467 57.4164 16.6 56.923 16.6ZM58.303 17.92V29H55.503V17.92H58.303ZM60.3495 23.46C60.3495 22.3133 60.5828 21.3133 61.0495 20.46C61.5161 19.5933 62.1628 18.9267 62.9895 18.46C63.8161 17.98 64.7628 17.74 65.8295 17.74C67.2028 17.74 68.3361 18.0867 69.2295 18.78C70.1361 19.46 70.7428 20.42 71.0495 21.66H68.0295C67.8695 21.18 67.5961 20.8067 67.2095 20.54C66.8361 20.26 66.3695 20.12 65.8095 20.12C65.0095 20.12 64.3761 20.4133 63.9095 21C63.4428 21.5733 63.2095 22.3933 63.2095 23.46C63.2095 24.5133 63.4428 25.3333 63.9095 25.92C64.3761 26.4933 65.0095 26.78 65.8095 26.78C66.9428 26.78 67.6828 26.2733 68.0295 25.26H71.0495C70.7428 26.46 70.1361 27.4133 69.2295 28.12C68.3228 28.8267 67.1895 29.18 65.8295 29.18C64.7628 29.18 63.8161 28.9467 62.9895 28.48C62.1628 28 61.5161 27.3333 61.0495 26.48C60.5828 25.6133 60.3495 24.6067 60.3495 23.46ZM74.5207 16.6C74.0274 16.6 73.614 16.4467 73.2807 16.14C72.9607 15.82 72.8007 15.4267 72.8007 14.96C72.8007 14.4933 72.9607 14.1067 73.2807 13.8C73.614 13.48 74.0274 13.32 74.5207 13.32C75.014 13.32 75.4207 13.48 75.7407 13.8C76.074 14.1067 76.2407 14.4933 76.2407 14.96C76.2407 15.4267 76.074 15.82 75.7407 16.14C75.4207 16.4467 75.014 16.6 74.5207 16.6ZM75.9007 17.92V29H73.1007V17.92H75.9007ZM77.9471 23.42C77.9471 22.3 78.1671 21.3067 78.6071 20.44C79.0604 19.5733 79.6671 18.9067 80.4271 18.44C81.2004 17.9733 82.0604 17.74 83.0071 17.74C83.8338 17.74 84.5538 17.9067 85.1671 18.24C85.7938 18.5733 86.2938 18.9933 86.6671 19.5V17.92H89.4871V29H86.6671V27.38C86.3071 27.9 85.8071 28.3333 85.1671 28.68C84.5404 29.0133 83.8138 29.18 82.9871 29.18C82.0538 29.18 81.2004 28.94 80.4271 28.46C79.6671 27.98 79.0604 27.3067 78.6071 26.44C78.1671 25.56 77.9471 24.5533 77.9471 23.42ZM86.6671 23.46C86.6671 22.78 86.5338 22.2 86.2671 21.72C86.0004 21.2267 85.6404 20.8533 85.1871 20.6C84.7338 20.3333 84.2471 20.2 83.7271 20.2C83.2071 20.2 82.7271 20.3267 82.2871 20.58C81.8471 20.8333 81.4871 21.2067 81.2071 21.7C80.9404 22.18 80.8071 22.7533 80.8071 23.42C80.8071 24.0867 80.9404 24.6733 81.2071 25.18C81.4871 25.6733 81.8471 26.0533 82.2871 26.32C82.7404 26.5867 83.2204 26.72 83.7271 26.72C84.2471 26.72 84.7338 26.5933 85.1871 26.34C85.6404 26.0733 86.0004 25.7 86.2671 25.22C86.5338 24.7267 86.6671 24.14 86.6671 23.46ZM95.0218 19.64C95.3818 19.0533 95.8485 18.5933 96.4218 18.26C97.0085 17.9267 97.6751 17.76 98.4218 17.76V20.7H97.6818C96.8018 20.7 96.1351 20.9067 95.6818 21.32C95.2418 21.7333 95.0218 22.4533 95.0218 23.48V29H92.2218V17.92H95.0218V19.64ZM109.893 29.14C108.92 29.14 108.04 28.9733 107.253 28.64C106.48 28.3067 105.867 27.8267 105.413 27.2C104.96 26.5733 104.727 25.8333 104.713 24.98H107.713C107.753 25.5533 107.953 26.0067 108.313 26.34C108.687 26.6733 109.193 26.84 109.833 26.84C110.487 26.84 111 26.6867 111.373 26.38C111.747 26.06 111.933 25.6467 111.933 25.14C111.933 24.7267 111.807 24.3867 111.553 24.12C111.3 23.8533 110.98 23.6467 110.593 23.5C110.22 23.34 109.7 23.1667 109.033 22.98C108.127 22.7133 107.387 22.4533 106.813 22.2C106.253 21.9333 105.767 21.54 105.353 21.02C104.953 20.4867 104.753 19.78 104.753 18.9C104.753 18.0733 104.96 17.3533 105.373 16.74C105.787 16.1267 106.367 15.66 107.113 15.34C107.86 15.0067 108.713 14.84 109.673 14.84C111.113 14.84 112.28 15.1933 113.173 15.9C114.08 16.5933 114.58 17.5667 114.673 18.82H111.593C111.567 18.34 111.36 17.9467 110.973 17.64C110.6 17.32 110.1 17.16 109.473 17.16C108.927 17.16 108.487 17.3 108.153 17.58C107.833 17.86 107.673 18.2667 107.673 18.8C107.673 19.1733 107.793 19.4867 108.033 19.74C108.287 19.98 108.593 20.18 108.953 20.34C109.327 20.4867 109.847 20.66 110.513 20.86C111.42 21.1267 112.16 21.3933 112.733 21.66C113.307 21.9267 113.8 22.3267 114.213 22.86C114.627 23.3933 114.833 24.0933 114.833 24.96C114.833 25.7067 114.64 26.4 114.253 27.04C113.867 27.68 113.3 28.1933 112.553 28.58C111.807 28.9533 110.92 29.14 109.893 29.14ZM127.561 23.22C127.561 23.62 127.534 23.98 127.481 24.3H119.381C119.448 25.1 119.728 25.7267 120.221 26.18C120.714 26.6333 121.321 26.86 122.041 26.86C123.081 26.86 123.821 26.4133 124.261 25.52H127.281C126.961 26.5867 126.348 27.4667 125.441 28.16C124.534 28.84 123.421 29.18 122.101 29.18C121.034 29.18 120.074 28.9467 119.221 28.48C118.381 28 117.721 27.3267 117.241 26.46C116.774 25.5933 116.541 24.5933 116.541 23.46C116.541 22.3133 116.774 21.3067 117.241 20.44C117.708 19.5733 118.361 18.9067 119.201 18.44C120.041 17.9733 121.008 17.74 122.101 17.74C123.154 17.74 124.094 17.9667 124.921 18.42C125.761 18.8733 126.408 19.52 126.861 20.36C127.328 21.1867 127.561 22.14 127.561 23.22ZM124.661 22.42C124.648 21.7 124.388 21.1267 123.881 20.7C123.374 20.26 122.754 20.04 122.021 20.04C121.328 20.04 120.741 20.2533 120.261 20.68C119.794 21.0933 119.508 21.6733 119.401 22.42H124.661ZM133.845 29.18C132.938 29.18 132.125 29.02 131.405 28.7C130.685 28.3667 130.111 27.92 129.685 27.36C129.271 26.8 129.045 26.18 129.005 25.5H131.825C131.878 25.9267 132.085 26.28 132.445 26.56C132.818 26.84 133.278 26.98 133.825 26.98C134.358 26.98 134.771 26.8733 135.065 26.66C135.371 26.4467 135.525 26.1733 135.525 25.84C135.525 25.48 135.338 25.2133 134.965 25.04C134.605 24.8533 134.025 24.6533 133.225 24.44C132.398 24.24 131.718 24.0333 131.185 23.82C130.665 23.6067 130.211 23.28 129.825 22.84C129.451 22.4 129.265 21.8067 129.265 21.06C129.265 20.4467 129.438 19.8867 129.785 19.38C130.145 18.8733 130.651 18.4733 131.305 18.18C131.971 17.8867 132.751 17.74 133.645 17.74C134.965 17.74 136.018 18.0733 136.805 18.74C137.591 19.3933 138.025 20.28 138.105 21.4H135.425C135.385 20.96 135.198 20.6133 134.865 20.36C134.545 20.0933 134.111 19.96 133.565 19.96C133.058 19.96 132.665 20.0533 132.385 20.24C132.118 20.4267 131.985 20.6867 131.985 21.02C131.985 21.3933 132.171 21.68 132.545 21.88C132.918 22.0667 133.498 22.26 134.285 22.46C135.085 22.66 135.745 22.8667 136.265 23.08C136.785 23.2933 137.231 23.6267 137.605 24.08C137.991 24.52 138.191 25.1067 138.205 25.84C138.205 26.48 138.025 27.0533 137.665 27.56C137.318 28.0667 136.811 28.4667 136.145 28.76C135.491 29.04 134.725 29.18 133.845 29.18ZM141.923 16.6C141.43 16.6 141.016 16.4467 140.683 16.14C140.363 15.82 140.203 15.4267 140.203 14.96C140.203 14.4933 140.363 14.1067 140.683 13.8C141.016 13.48 141.43 13.32 141.923 13.32C142.416 13.32 142.823 13.48 143.143 13.8C143.476 14.1067 143.643 14.4933 143.643 14.96C143.643 15.4267 143.476 15.82 143.143 16.14C142.823 16.4467 142.416 16.6 141.923 16.6ZM143.303 17.92V29H140.503V17.92H143.303ZM150.989 29.18C149.923 29.18 148.963 28.9467 148.109 28.48C147.256 28 146.583 27.3267 146.089 26.46C145.609 25.5933 145.369 24.5933 145.369 23.46C145.369 22.3267 145.616 21.3267 146.109 20.46C146.616 19.5933 147.303 18.9267 148.169 18.46C149.036 17.98 150.003 17.74 151.069 17.74C152.136 17.74 153.103 17.98 153.969 18.46C154.836 18.9267 155.516 19.5933 156.009 20.46C156.516 21.3267 156.769 22.3267 156.769 23.46C156.769 24.5933 156.509 25.5933 155.989 26.46C155.483 27.3267 154.789 28 153.909 28.48C153.043 28.9467 152.069 29.18 150.989 29.18ZM150.989 26.74C151.496 26.74 151.969 26.62 152.409 26.38C152.863 26.1267 153.223 25.7533 153.489 25.26C153.756 24.7667 153.889 24.1667 153.889 23.46C153.889 22.4067 153.609 21.6 153.049 21.04C152.503 20.4667 151.829 20.18 151.029 20.18C150.229 20.18 149.556 20.4667 149.009 21.04C148.476 21.6 148.209 22.4067 148.209 23.46C148.209 24.5133 148.469 25.3267 148.989 25.9C149.523 26.46 150.189 26.74 150.989 26.74ZM153.369 14.9L148.769 17V15L153.369 12.62V14.9ZM164.963 17.76C166.283 17.76 167.35 18.18 168.163 19.02C168.977 19.8467 169.383 21.0067 169.383 22.5V29H166.583V22.88C166.583 22 166.363 21.3267 165.923 20.86C165.483 20.38 164.883 20.14 164.123 20.14C163.35 20.14 162.737 20.38 162.283 20.86C161.843 21.3267 161.623 22 161.623 22.88V29H158.823V17.92H161.623V19.3C161.997 18.82 162.47 18.4467 163.043 18.18C163.63 17.9 164.27 17.76 164.963 17.76Z" fill="#093030"/>
</svg>
