<svg width="169" height="36" viewBox="0 0 169 36" fill="none" xmlns="http://www.w3.org/2000/svg">
<rect width="169" height="36" rx="18" fill="#DFF7E2"/>
<path d="M47.6288 23.8L44.5488 18.36H43.2288V23.8H40.4288V9.84005H45.6688C46.7488 9.84005 47.6688 10.0334 48.4288 10.42C49.1888 10.7934 49.7555 11.3067 50.1288 11.96C50.5155 12.6 50.7088 13.32 50.7088 14.12C50.7088 15.04 50.4422 15.8734 49.9088 16.62C49.3755 17.3534 48.5822 17.86 47.5288 18.14L50.8688 23.8H47.6288ZM43.2288 16.26H45.5688C46.3288 16.26 46.8955 16.08 47.2688 15.72C47.6422 15.3467 47.8288 14.8334 47.8288 14.18C47.8288 13.54 47.6422 13.0467 47.2688 12.7C46.8955 12.34 46.3288 12.16 45.5688 12.16H43.2288V16.26ZM63.5413 18.02C63.5413 18.42 63.5147 18.78 63.4613 19.1H55.3613C55.428 19.9 55.708 20.5267 56.2013 20.98C56.6947 21.4334 57.3013 21.66 58.0213 21.66C59.0613 21.66 59.8013 21.2134 60.2413 20.32H63.2613C62.9413 21.3867 62.328 22.2667 61.4213 22.96C60.5147 23.64 59.4013 23.98 58.0813 23.98C57.0147 23.98 56.0547 23.7467 55.2013 23.28C54.3613 22.8 53.7013 22.1267 53.2213 21.26C52.7547 20.3934 52.5213 19.3934 52.5213 18.26C52.5213 17.1134 52.7547 16.1067 53.2213 15.24C53.688 14.3734 54.3413 13.7067 55.1813 13.24C56.0213 12.7734 56.988 12.54 58.0813 12.54C59.1347 12.54 60.0747 12.7667 60.9013 13.22C61.7413 13.6734 62.388 14.32 62.8413 15.16C63.308 15.9867 63.5413 16.94 63.5413 18.02ZM60.6413 17.22C60.628 16.5 60.368 15.9267 59.8613 15.5C59.3547 15.06 58.7347 14.84 58.0013 14.84C57.308 14.84 56.7213 15.0534 56.2413 15.48C55.7747 15.8934 55.488 16.4734 55.3813 17.22H60.6413ZM75.8851 18.02C75.8851 18.42 75.8584 18.78 75.8051 19.1H67.7051C67.7717 19.9 68.0517 20.5267 68.5451 20.98C69.0384 21.4334 69.6451 21.66 70.3651 21.66C71.4051 21.66 72.1451 21.2134 72.5851 20.32H75.6051C75.2851 21.3867 74.6717 22.2667 73.7651 22.96C72.8584 23.64 71.7451 23.98 70.4251 23.98C69.3584 23.98 68.3984 23.7467 67.5451 23.28C66.7051 22.8 66.0451 22.1267 65.5651 21.26C65.0984 20.3934 64.8651 19.3934 64.8651 18.26C64.8651 17.1134 65.0984 16.1067 65.5651 15.24C66.0317 14.3734 66.6851 13.7067 67.5251 13.24C68.3651 12.7734 69.3317 12.54 70.4251 12.54C71.4784 12.54 72.4184 12.7667 73.2451 13.22C74.0851 13.6734 74.7317 14.32 75.1851 15.16C75.6517 15.9867 75.8851 16.94 75.8851 18.02ZM72.9851 17.22C72.9717 16.5 72.7117 15.9267 72.2051 15.5C71.6984 15.06 71.0784 14.84 70.3451 14.84C69.6517 14.84 69.0651 15.0534 68.5851 15.48C68.1184 15.8934 67.8317 16.4734 67.7251 17.22H72.9851ZM84.0688 12.56C85.3888 12.56 86.4555 12.98 87.2688 13.82C88.0822 14.6467 88.4888 15.8067 88.4888 17.3V23.8H85.6888V17.68C85.6888 16.8 85.4688 16.1267 85.0288 15.66C84.5888 15.18 83.9888 14.94 83.2288 14.94C82.4555 14.94 81.8422 15.18 81.3888 15.66C80.9488 16.1267 80.7288 16.8 80.7288 17.68V23.8H77.9288V12.72H80.7288V14.1C81.1022 13.62 81.5755 13.2467 82.1488 12.98C82.7355 12.7 83.3755 12.56 84.0688 12.56ZM95.7715 21.22L98.5715 12.72H101.551L97.4515 23.8H94.0515L89.9715 12.72H92.9715L95.7715 21.22ZM104.544 11.4C104.051 11.4 103.637 11.2467 103.304 10.94C102.984 10.62 102.824 10.2267 102.824 9.76005C102.824 9.29338 102.984 8.90671 103.304 8.60005C103.637 8.28005 104.051 8.12005 104.544 8.12005C105.037 8.12005 105.444 8.28005 105.764 8.60005C106.097 8.90671 106.264 9.29338 106.264 9.76005C106.264 10.2267 106.097 10.62 105.764 10.94C105.444 11.2467 105.037 11.4 104.544 11.4ZM105.924 12.72V23.8H103.124V12.72H105.924ZM107.971 18.22C107.971 17.1 108.191 16.1067 108.631 15.24C109.084 14.3734 109.691 13.7067 110.451 13.24C111.224 12.7734 112.084 12.54 113.031 12.54C113.857 12.54 114.577 12.7067 115.191 13.04C115.817 13.3734 116.317 13.7934 116.691 14.3V12.72H119.511V23.8H116.691V22.18C116.331 22.7 115.831 23.1334 115.191 23.48C114.564 23.8134 113.837 23.98 113.011 23.98C112.077 23.98 111.224 23.74 110.451 23.26C109.691 22.78 109.084 22.1067 108.631 21.24C108.191 20.36 107.971 19.3534 107.971 18.22ZM116.691 18.26C116.691 17.58 116.557 17 116.291 16.52C116.024 16.0267 115.664 15.6534 115.211 15.4C114.757 15.1334 114.271 15 113.751 15C113.231 15 112.751 15.1267 112.311 15.38C111.871 15.6334 111.511 16.0067 111.231 16.5C110.964 16.98 110.831 17.5534 110.831 18.22C110.831 18.8867 110.964 19.4734 111.231 19.98C111.511 20.4734 111.871 20.8534 112.311 21.12C112.764 21.3867 113.244 21.52 113.751 21.52C114.271 21.52 114.757 21.3934 115.211 21.14C115.664 20.8734 116.024 20.5 116.291 20.02C116.557 19.5267 116.691 18.94 116.691 18.26ZM125.045 14.44C125.405 13.8534 125.872 13.3934 126.445 13.06C127.032 12.7267 127.699 12.56 128.445 12.56V15.5H127.705C126.825 15.5 126.159 15.7067 125.705 16.12C125.265 16.5334 125.045 17.2534 125.045 18.28V23.8H122.245V12.72H125.045V14.44Z" fill="#0E3E3E"/>
</svg>
