<svg width="207" height="45" viewBox="0 0 207 45" fill="none" xmlns="http://www.w3.org/2000/svg">
<rect width="207" height="45" rx="22.5" fill="#00D09E"/>
<path d="M59.246 29L56.166 23.56H54.846V29H52.046V15.04H57.286C58.366 15.04 59.286 15.2333 60.046 15.62C60.806 15.9933 61.3727 16.5067 61.746 17.16C62.1327 17.8 62.326 18.52 62.326 19.32C62.326 20.24 62.0593 21.0733 61.526 21.82C60.9927 22.5533 60.1993 23.06 59.146 23.34L62.486 29H59.246ZM54.846 21.46H57.186C57.946 21.46 58.5127 21.28 58.886 20.92C59.2593 20.5467 59.446 20.0333 59.446 19.38C59.446 18.74 59.2593 18.2467 58.886 17.9C58.5127 17.54 57.946 17.36 57.186 17.36H54.846V21.46ZM75.1585 23.22C75.1585 23.62 75.1318 23.98 75.0785 24.3H66.9785C67.0452 25.1 67.3252 25.7267 67.8185 26.18C68.3118 26.6333 68.9185 26.86 69.6385 26.86C70.6785 26.86 71.4185 26.4133 71.8585 25.52H74.8785C74.5585 26.5867 73.9452 27.4667 73.0385 28.16C72.1318 28.84 71.0185 29.18 69.6985 29.18C68.6318 29.18 67.6718 28.9467 66.8185 28.48C65.9785 28 65.3185 27.3267 64.8385 26.46C64.3718 25.5933 64.1385 24.5933 64.1385 23.46C64.1385 22.3133 64.3718 21.3067 64.8385 20.44C65.3052 19.5733 65.9585 18.9067 66.7985 18.44C67.6385 17.9733 68.6052 17.74 69.6985 17.74C70.7518 17.74 71.6918 17.9667 72.5185 18.42C73.3585 18.8733 74.0052 19.52 74.4585 20.36C74.9252 21.1867 75.1585 22.14 75.1585 23.22ZM72.2585 22.42C72.2452 21.7 71.9852 21.1267 71.4785 20.7C70.9718 20.26 70.3518 20.04 69.6185 20.04C68.9252 20.04 68.3385 20.2533 67.8585 20.68C67.3918 21.0933 67.1052 21.6733 66.9985 22.42H72.2585ZM81.5423 17.74C82.3689 17.74 83.0956 17.9067 83.7223 18.24C84.3489 18.56 84.8423 18.98 85.2023 19.5V17.92H88.0223V29.08C88.0223 30.1067 87.8156 31.02 87.4023 31.82C86.9889 32.6333 86.3689 33.2733 85.5423 33.74C84.7156 34.22 83.7156 34.46 82.5423 34.46C80.9689 34.46 79.6756 34.0933 78.6623 33.36C77.6623 32.6267 77.0956 31.6267 76.9623 30.36H79.7423C79.8889 30.8667 80.2023 31.2667 80.6823 31.56C81.1756 31.8667 81.7689 32.02 82.4623 32.02C83.2756 32.02 83.9356 31.7733 84.4423 31.28C84.9489 30.8 85.2023 30.0667 85.2023 29.08V27.36C84.8423 27.88 84.3423 28.3133 83.7023 28.66C83.0756 29.0067 82.3556 29.18 81.5423 29.18C80.6089 29.18 79.7556 28.94 78.9823 28.46C78.2089 27.98 77.5956 27.3067 77.1423 26.44C76.7023 25.56 76.4823 24.5533 76.4823 23.42C76.4823 22.3 76.7023 21.3067 77.1423 20.44C77.5956 19.5733 78.2023 18.9067 78.9623 18.44C79.7356 17.9733 80.5956 17.74 81.5423 17.74ZM85.2023 23.46C85.2023 22.78 85.0689 22.2 84.8023 21.72C84.5356 21.2267 84.1756 20.8533 83.7223 20.6C83.2689 20.3333 82.7823 20.2 82.2623 20.2C81.7423 20.2 81.2623 20.3267 80.8223 20.58C80.3823 20.8333 80.0223 21.2067 79.7423 21.7C79.4756 22.18 79.3423 22.7533 79.3423 23.42C79.3423 24.0867 79.4756 24.6733 79.7423 25.18C80.0223 25.6733 80.3823 26.0533 80.8223 26.32C81.2756 26.5867 81.7556 26.72 82.2623 26.72C82.7823 26.72 83.2689 26.5933 83.7223 26.34C84.1756 26.0733 84.5356 25.7 84.8023 25.22C85.0689 24.7267 85.2023 24.14 85.2023 23.46ZM92.177 16.6C91.6836 16.6 91.2703 16.4467 90.937 16.14C90.617 15.82 90.457 15.4267 90.457 14.96C90.457 14.4933 90.617 14.1067 90.937 13.8C91.2703 13.48 91.6836 13.32 92.177 13.32C92.6703 13.32 93.077 13.48 93.397 13.8C93.7303 14.1067 93.897 14.4933 93.897 14.96C93.897 15.4267 93.7303 15.82 93.397 16.14C93.077 16.4467 92.6703 16.6 92.177 16.6ZM93.557 17.92V29H90.757V17.92H93.557ZM100.563 29.18C99.6567 29.18 98.8434 29.02 98.1234 28.7C97.4034 28.3667 96.83 27.92 96.4034 27.36C95.99 26.8 95.7634 26.18 95.7234 25.5H98.5434C98.5967 25.9267 98.8034 26.28 99.1634 26.56C99.5367 26.84 99.9967 26.98 100.543 26.98C101.077 26.98 101.49 26.8733 101.783 26.66C102.09 26.4467 102.243 26.1733 102.243 25.84C102.243 25.48 102.057 25.2133 101.683 25.04C101.323 24.8533 100.743 24.6533 99.9434 24.44C99.1167 24.24 98.4367 24.0333 97.9034 23.82C97.3834 23.6067 96.93 23.28 96.5434 22.84C96.17 22.4 95.9834 21.8067 95.9834 21.06C95.9834 20.4467 96.1567 19.8867 96.5034 19.38C96.8634 18.8733 97.37 18.4733 98.0234 18.18C98.69 17.8867 99.47 17.74 100.363 17.74C101.683 17.74 102.737 18.0733 103.523 18.74C104.31 19.3933 104.743 20.28 104.823 21.4H102.143C102.103 20.96 101.917 20.6133 101.583 20.36C101.263 20.0933 100.83 19.96 100.283 19.96C99.7767 19.96 99.3834 20.0533 99.1034 20.24C98.8367 20.4267 98.7034 20.6867 98.7034 21.02C98.7034 21.3933 98.89 21.68 99.2634 21.88C99.6367 22.0667 100.217 22.26 101.003 22.46C101.803 22.66 102.463 22.8667 102.983 23.08C103.503 23.2933 103.95 23.6267 104.323 24.08C104.71 24.52 104.91 25.1067 104.923 25.84C104.923 26.48 104.743 27.0533 104.383 27.56C104.037 28.0667 103.53 28.4667 102.863 28.76C102.21 29.04 101.443 29.18 100.563 29.18ZM110.482 20.22V25.58C110.482 25.9533 110.568 26.2267 110.742 26.4C110.928 26.56 111.235 26.64 111.662 26.64H112.962V29H111.202C108.842 29 107.662 27.8533 107.662 25.56V20.22H106.342V17.92H107.662V15.18H110.482V17.92H112.962V20.22H110.482ZM117.776 19.64C118.136 19.0533 118.602 18.5933 119.176 18.26C119.762 17.9267 120.429 17.76 121.176 17.76V20.7H120.436C119.556 20.7 118.889 20.9067 118.436 21.32C117.996 21.7333 117.776 22.4533 117.776 23.48V29H114.976V17.92H117.776V19.64ZM122.342 23.42C122.342 22.3 122.562 21.3067 123.002 20.44C123.455 19.5733 124.062 18.9067 124.822 18.44C125.595 17.9733 126.455 17.74 127.402 17.74C128.228 17.74 128.948 17.9067 129.562 18.24C130.188 18.5733 130.688 18.9933 131.062 19.5V17.92H133.882V29H131.062V27.38C130.702 27.9 130.202 28.3333 129.562 28.68C128.935 29.0133 128.208 29.18 127.382 29.18C126.448 29.18 125.595 28.94 124.822 28.46C124.062 27.98 123.455 27.3067 123.002 26.44C122.562 25.56 122.342 24.5533 122.342 23.42ZM131.062 23.46C131.062 22.78 130.928 22.2 130.662 21.72C130.395 21.2267 130.035 20.8533 129.582 20.6C129.128 20.3333 128.642 20.2 128.122 20.2C127.602 20.2 127.122 20.3267 126.682 20.58C126.242 20.8333 125.882 21.2067 125.602 21.7C125.335 22.18 125.202 22.7533 125.202 23.42C125.202 24.0867 125.335 24.6733 125.602 25.18C125.882 25.6733 126.242 26.0533 126.682 26.32C127.135 26.5867 127.615 26.72 128.122 26.72C128.642 26.72 129.128 26.5933 129.582 26.34C130.035 26.0733 130.395 25.7 130.662 25.22C130.928 24.7267 131.062 24.14 131.062 23.46ZM139.876 20.22V25.58C139.876 25.9533 139.963 26.2267 140.136 26.4C140.323 26.56 140.63 26.64 141.056 26.64H142.356V29H140.596C138.236 29 137.056 27.8533 137.056 25.56V20.22H135.736V17.92H137.056V15.18H139.876V17.92H142.356V20.22H139.876ZM154.67 23.22C154.67 23.62 154.644 23.98 154.59 24.3H146.49C146.557 25.1 146.837 25.7267 147.33 26.18C147.824 26.6333 148.43 26.86 149.15 26.86C150.19 26.86 150.93 26.4133 151.37 25.52H154.39C154.07 26.5867 153.457 27.4667 152.55 28.16C151.644 28.84 150.53 29.18 149.21 29.18C148.144 29.18 147.184 28.9467 146.33 28.48C145.49 28 144.83 27.3267 144.35 26.46C143.884 25.5933 143.65 24.5933 143.65 23.46C143.65 22.3133 143.884 21.3067 144.35 20.44C144.817 19.5733 145.47 18.9067 146.31 18.44C147.15 17.9733 148.117 17.74 149.21 17.74C150.264 17.74 151.204 17.9667 152.03 18.42C152.87 18.8733 153.517 19.52 153.97 20.36C154.437 21.1867 154.67 22.14 154.67 23.22ZM151.77 22.42C151.757 21.7 151.497 21.1267 150.99 20.7C150.484 20.26 149.864 20.04 149.13 20.04C148.437 20.04 147.85 20.2533 147.37 20.68C146.904 21.0933 146.617 21.6733 146.51 22.42H151.77Z" fill="#093030"/>
</svg>
