<svg width="207" height="45" viewBox="0 0 207 45" fill="none" xmlns="http://www.w3.org/2000/svg">
<rect width="207" height="45" rx="22.5" fill="#DFF7E2"/>
<path d="M53.6308 29L50.5508 23.56H49.2308V29H46.4308V15.04H51.6708C52.7508 15.04 53.6708 15.2333 54.4308 15.62C55.1908 15.9933 55.7574 16.5067 56.1308 17.16C56.5174 17.8 56.7108 18.52 56.7108 19.32C56.7108 20.24 56.4441 21.0733 55.9108 21.82C55.3774 22.5533 54.5841 23.06 53.5308 23.34L56.8708 29H53.6308ZM49.2308 21.46H51.5708C52.3308 21.46 52.8974 21.28 53.2708 20.92C53.6441 20.5467 53.8308 20.0333 53.8308 19.38C53.8308 18.74 53.6441 18.2467 53.2708 17.9C52.8974 17.54 52.3308 17.36 51.5708 17.36H49.2308V21.46ZM69.5433 23.22C69.5433 23.62 69.5166 23.98 69.4633 24.3H61.3633C61.4299 25.1 61.7099 25.7267 62.2033 26.18C62.6966 26.6333 63.3033 26.86 64.0233 26.86C65.0633 26.86 65.8033 26.4133 66.2433 25.52H69.2633C68.9433 26.5867 68.3299 27.4667 67.4233 28.16C66.5166 28.84 65.4033 29.18 64.0833 29.18C63.0166 29.18 62.0566 28.9467 61.2033 28.48C60.3633 28 59.7033 27.3267 59.2233 26.46C58.7566 25.5933 58.5233 24.5933 58.5233 23.46C58.5233 22.3133 58.7566 21.3067 59.2233 20.44C59.6899 19.5733 60.3433 18.9067 61.1833 18.44C62.0233 17.9733 62.9899 17.74 64.0833 17.74C65.1366 17.74 66.0766 17.9667 66.9033 18.42C67.7433 18.8733 68.3899 19.52 68.8433 20.36C69.3099 21.1867 69.5433 22.14 69.5433 23.22ZM66.6433 22.42C66.6299 21.7 66.3699 21.1267 65.8633 20.7C65.3566 20.26 64.7366 20.04 64.0033 20.04C63.3099 20.04 62.7233 20.2533 62.2433 20.68C61.7766 21.0933 61.4899 21.6733 61.3833 22.42H66.6433ZM75.927 17.74C76.7537 17.74 77.4804 17.9067 78.107 18.24C78.7337 18.56 79.227 18.98 79.587 19.5V17.92H82.407V29.08C82.407 30.1067 82.2004 31.02 81.787 31.82C81.3737 32.6333 80.7537 33.2733 79.927 33.74C79.1004 34.22 78.1004 34.46 76.927 34.46C75.3537 34.46 74.0604 34.0933 73.047 33.36C72.047 32.6267 71.4804 31.6267 71.347 30.36H74.127C74.2737 30.8667 74.587 31.2667 75.067 31.56C75.5604 31.8667 76.1537 32.02 76.847 32.02C77.6604 32.02 78.3204 31.7733 78.827 31.28C79.3337 30.8 79.587 30.0667 79.587 29.08V27.36C79.227 27.88 78.727 28.3133 78.087 28.66C77.4604 29.0067 76.7404 29.18 75.927 29.18C74.9937 29.18 74.1404 28.94 73.367 28.46C72.5937 27.98 71.9804 27.3067 71.527 26.44C71.087 25.56 70.867 24.5533 70.867 23.42C70.867 22.3 71.087 21.3067 71.527 20.44C71.9804 19.5733 72.587 18.9067 73.347 18.44C74.1204 17.9733 74.9804 17.74 75.927 17.74ZM79.587 23.46C79.587 22.78 79.4537 22.2 79.187 21.72C78.9204 21.2267 78.5604 20.8533 78.107 20.6C77.6537 20.3333 77.167 20.2 76.647 20.2C76.127 20.2 75.647 20.3267 75.207 20.58C74.767 20.8333 74.407 21.2067 74.127 21.7C73.8604 22.18 73.727 22.7533 73.727 23.42C73.727 24.0867 73.8604 24.6733 74.127 25.18C74.407 25.6733 74.767 26.0533 75.207 26.32C75.6604 26.5867 76.1404 26.72 76.647 26.72C77.167 26.72 77.6537 26.5933 78.107 26.34C78.5604 26.0733 78.9204 25.7 79.187 25.22C79.4537 24.7267 79.587 24.14 79.587 23.46ZM86.5617 16.6C86.0684 16.6 85.6551 16.4467 85.3217 16.14C85.0017 15.82 84.8417 15.4267 84.8417 14.96C84.8417 14.4933 85.0017 14.1067 85.3217 13.8C85.6551 13.48 86.0684 13.32 86.5617 13.32C87.0551 13.32 87.4617 13.48 87.7817 13.8C88.1151 14.1067 88.2817 14.4933 88.2817 14.96C88.2817 15.4267 88.1151 15.82 87.7817 16.14C87.4617 16.4467 87.0551 16.6 86.5617 16.6ZM87.9417 17.92V29H85.1417V17.92H87.9417ZM94.9481 29.18C94.0415 29.18 93.2281 29.02 92.5081 28.7C91.7881 28.3667 91.2148 27.92 90.7881 27.36C90.3748 26.8 90.1481 26.18 90.1081 25.5H92.9281C92.9815 25.9267 93.1881 26.28 93.5481 26.56C93.9215 26.84 94.3815 26.98 94.9281 26.98C95.4615 26.98 95.8748 26.8733 96.1681 26.66C96.4748 26.4467 96.6281 26.1733 96.6281 25.84C96.6281 25.48 96.4415 25.2133 96.0681 25.04C95.7081 24.8533 95.1281 24.6533 94.3281 24.44C93.5015 24.24 92.8215 24.0333 92.2881 23.82C91.7681 23.6067 91.3148 23.28 90.9281 22.84C90.5548 22.4 90.3681 21.8067 90.3681 21.06C90.3681 20.4467 90.5415 19.8867 90.8881 19.38C91.2481 18.8733 91.7548 18.4733 92.4081 18.18C93.0748 17.8867 93.8548 17.74 94.7481 17.74C96.0681 17.74 97.1215 18.0733 97.9081 18.74C98.6948 19.3933 99.1281 20.28 99.2081 21.4H96.5281C96.4881 20.96 96.3015 20.6133 95.9681 20.36C95.6481 20.0933 95.2148 19.96 94.6681 19.96C94.1615 19.96 93.7681 20.0533 93.4881 20.24C93.2215 20.4267 93.0881 20.6867 93.0881 21.02C93.0881 21.3933 93.2748 21.68 93.6481 21.88C94.0215 22.0667 94.6015 22.26 95.3881 22.46C96.1881 22.66 96.8481 22.8667 97.3681 23.08C97.8881 23.2933 98.3348 23.6267 98.7081 24.08C99.0948 24.52 99.2948 25.1067 99.3081 25.84C99.3081 26.48 99.1281 27.0533 98.7681 27.56C98.4215 28.0667 97.9148 28.4667 97.2481 28.76C96.5948 29.04 95.8281 29.18 94.9481 29.18ZM104.867 20.22V25.58C104.867 25.9533 104.953 26.2267 105.127 26.4C105.313 26.56 105.62 26.64 106.047 26.64H107.347V29H105.587C103.227 29 102.047 27.8533 102.047 25.56V20.22H100.727V17.92H102.047V15.18H104.867V17.92H107.347V20.22H104.867ZM112.16 19.64C112.52 19.0533 112.987 18.5933 113.56 18.26C114.147 17.9267 114.814 17.76 115.56 17.76V20.7H114.82C113.94 20.7 113.274 20.9067 112.82 21.32C112.38 21.7333 112.16 22.4533 112.16 23.48V29H109.36V17.92H112.16V19.64ZM116.726 23.42C116.726 22.3 116.946 21.3067 117.386 20.44C117.84 19.5733 118.446 18.9067 119.206 18.44C119.98 17.9733 120.84 17.74 121.786 17.74C122.613 17.74 123.333 17.9067 123.946 18.24C124.573 18.5733 125.073 18.9933 125.446 19.5V17.92H128.266V29H125.446V27.38C125.086 27.9 124.586 28.3333 123.946 28.68C123.32 29.0133 122.593 29.18 121.766 29.18C120.833 29.18 119.98 28.94 119.206 28.46C118.446 27.98 117.84 27.3067 117.386 26.44C116.946 25.56 116.726 24.5533 116.726 23.42ZM125.446 23.46C125.446 22.78 125.313 22.2 125.046 21.72C124.78 21.2267 124.42 20.8533 123.966 20.6C123.513 20.3333 123.026 20.2 122.506 20.2C121.986 20.2 121.506 20.3267 121.066 20.58C120.626 20.8333 120.266 21.2067 119.986 21.7C119.72 22.18 119.586 22.7533 119.586 23.42C119.586 24.0867 119.72 24.6733 119.986 25.18C120.266 25.6733 120.626 26.0533 121.066 26.32C121.52 26.5867 122 26.72 122.506 26.72C123.026 26.72 123.513 26.5933 123.966 26.34C124.42 26.0733 124.78 25.7 125.046 25.22C125.313 24.7267 125.446 24.14 125.446 23.46ZM133.801 19.64C134.161 19.0533 134.628 18.5933 135.201 18.26C135.788 17.9267 136.454 17.76 137.201 17.76V20.7H136.461C135.581 20.7 134.914 20.9067 134.461 21.32C134.021 21.7333 133.801 22.4533 133.801 23.48V29H131.001V17.92H133.801V19.64ZM143.327 29.18C142.42 29.18 141.607 29.02 140.887 28.7C140.167 28.3667 139.594 27.92 139.167 27.36C138.754 26.8 138.527 26.18 138.487 25.5H141.307C141.36 25.9267 141.567 26.28 141.927 26.56C142.3 26.84 142.76 26.98 143.307 26.98C143.84 26.98 144.254 26.8733 144.547 26.66C144.854 26.4467 145.007 26.1733 145.007 25.84C145.007 25.48 144.82 25.2133 144.447 25.04C144.087 24.8533 143.507 24.6533 142.707 24.44C141.88 24.24 141.2 24.0333 140.667 23.82C140.147 23.6067 139.694 23.28 139.307 22.84C138.934 22.4 138.747 21.8067 138.747 21.06C138.747 20.4467 138.92 19.8867 139.267 19.38C139.627 18.8733 140.134 18.4733 140.787 18.18C141.454 17.8867 142.234 17.74 143.127 17.74C144.447 17.74 145.5 18.0733 146.287 18.74C147.074 19.3933 147.507 20.28 147.587 21.4H144.907C144.867 20.96 144.68 20.6133 144.347 20.36C144.027 20.0933 143.594 19.96 143.047 19.96C142.54 19.96 142.147 20.0533 141.867 20.24C141.6 20.4267 141.467 20.6867 141.467 21.02C141.467 21.3933 141.654 21.68 142.027 21.88C142.4 22.0667 142.98 22.26 143.767 22.46C144.567 22.66 145.227 22.8667 145.747 23.08C146.267 23.2933 146.714 23.6267 147.087 24.08C147.474 24.52 147.674 25.1067 147.687 25.84C147.687 26.48 147.507 27.0533 147.147 27.56C146.8 28.0667 146.294 28.4667 145.627 28.76C144.974 29.04 144.207 29.18 143.327 29.18ZM160.285 23.22C160.285 23.62 160.259 23.98 160.205 24.3H152.105C152.172 25.1 152.452 25.7267 152.945 26.18C153.439 26.6333 154.045 26.86 154.765 26.86C155.805 26.86 156.545 26.4133 156.985 25.52H160.005C159.685 26.5867 159.072 27.4667 158.165 28.16C157.259 28.84 156.145 29.18 154.825 29.18C153.759 29.18 152.799 28.9467 151.945 28.48C151.105 28 150.445 27.3267 149.965 26.46C149.499 25.5933 149.265 24.5933 149.265 23.46C149.265 22.3133 149.499 21.3067 149.965 20.44C150.432 19.5733 151.085 18.9067 151.925 18.44C152.765 17.9733 153.732 17.74 154.825 17.74C155.879 17.74 156.819 17.9667 157.645 18.42C158.485 18.8733 159.132 19.52 159.585 20.36C160.052 21.1867 160.285 22.14 160.285 23.22ZM157.385 22.42C157.372 21.7 157.112 21.1267 156.605 20.7C156.099 20.26 155.479 20.04 154.745 20.04C154.052 20.04 153.465 20.2533 152.985 20.68C152.519 21.0933 152.232 21.6733 152.125 22.42H157.385Z" fill="#0E3E3E"/>
</svg>
